<?xml version="1.0" encoding="UTF-8"?><svg xmlns="http://www.w3.org/2000/svg" viewBox="0 0 306.13 112.91"><defs><style>.d{fill:#fe0000;stroke:#231f20;stroke-miterlimit:10;stroke-width:2px;}</style></defs><g id="a"/><g id="b"><g id="c"><path class="d" d="M1,58.09s22.98,6.64,30.64,3.06,2.04-29.11,2.04-29.11l34.72-2.04s6.64,40.34-17.87,63.32C15.81,117.83,1,110.68,1,110.68V58.09Z"/><path class="d" d="M138.36,60.26s.89-6.89,0-10.34-1.53-3.29-1.79-5.11-.25-4.01,.89-4.6,1.85-1.44,3.96-2.04l3.57-1.02h2.04s.19,5.27,0,8.43-2.3,5.87-2.3,5.87c0,0,2.53,.72,4.85,.51s3.07-.34,5.62-.51l3.83-.26s1.53-.1,1.53-1.28v-9.7s-.06-1.4,2.04-1.53,3.32,2.04,3.32,2.04v6.89l-1.02,5.87s-.7,3.13-.77,4.6,1.79,2.17,1.79,2.17h20.17l-1.53-43.53s-1.53-6.38-31.15-1.79c-4.57,.71-2.45-8.94-2.45-8.94,0,0-23.02,3.89-29.97,14.04-5.11,2.17,0,40.21,0,40.21h17.36Z"/><path class="d" d="M234.07,9.77h35.62s-4.5,38.3-2.49,49.4c.96,4.07,3.16,3.35,6.09,4.05,10.47,.26,31.82-2.62,31.82-2.62l-.67,51.22s-64.15-4.88-66.26-51.03c-4.12-46.24-4.12-51.03-4.12-51.03Z"/><circle class="d" cx="51.31" cy="18.9" r="17.9"/><path class="d" d="M116.4,7.53c-4.09-1.53-17.87,2.55-17.87,2.55l-.51,6.64c-19-2.72-28.6,6.13-28.8,26.56,1.09,17.35,12.12,20.98,31.36,13.27v5.62s15.57-.26,17.87-2.55c-1.02-10.21,2.04-50.55-2.04-52.08Zm-29.62,34.21c-1.28-4.6,3.32-6.94,3.32-6.94l8.17-2.76,.51,1.09,1.53,10.15s-12.26,3.06-13.53-1.53Z"/><path class="d" d="M235.41,60.7l-.96-47.68-2.01-1.15-.57-3.83s-11.11,.67-12.26,.77c-1.15,.1-.67,2.78-.67,2.78l-.1,1.72-1.34,.86v-2.97s-25.85,.29-30.26,21.93,6.7,23.94,6.7,23.94c0,0,13.98,4.4,23.55,1.63,1.15-1.63,.86,2.87,.86,2.87l17.04-.86Zm-19.95-21.51s-8.68,1.03-12,0c-1.91-.51-2.04-2.38-2.04-2.38,0,0-.26-4,3.57-4.77,3.83-.77,10.47-2.04,10.47-2.04v9.19Z"/></g></g></svg>